# xmcd
#
# Track frame offsets:
#	150
#	9215
#	27817
#	39492
#	56948
#	72941
#	84374
#	103966
#	121996
#	136181
#	151670
#	166954
#	178672
#	186079
#	206131
#	219424
#	238188
#	257105
#	275729
#
# Disc length: 3696 seconds
#
# Revision: 0
# Processed by: cddbd v1.5.1PL0 Copyright (c) Steve Scherf et al.
# Submitted via: EasyCDDAExtractor 8.0.1.1
#
DISCID=0c0e6e13
DTITLE=Hullie and Wai - Stijlloos
DYEAR=1996
DGENRE=Other
TTITLE0=Tristesse
TTITLE1=He'll Have To Go
TTITLE2=Mandalay Song
TTITLE3=When A Man Loves A Woman
TTITLE4=Nightboat To Caïro
TTITLE5=Alabama Song
TTITLE6=Peter Gunn
TTITLE7=Sweet Virginia
TTITLE8=A Glesele Vayn
TTITLE9=Oh Darlin'
TTITLE10=Wooly Bully
TTITLE11=Grandola
TTITLE12=La Fogaraccia
TTITLE13=Novecento Funeral Theme
TTITLE14=Maidlach Wie Blumen
TTITLE15=Fire
TTITLE16=Time Is Tight
TTITLE17=I Hear You Knockin'
TTITLE18=Laurel and Hardy Theme
EXTD=
EXTT0=
EXTT1=
EXTT2=
EXTT3=
EXTT4=
EXTT5=
EXTT6=
EXTT7=
EXTT8=
EXTT9=
EXTT10=
EXTT11=
EXTT12=
EXTT13=
EXTT14=
EXTT15=
EXTT16=
EXTT17=
EXTT18=
PLAYORDER=
